<mxfile host="Electron" modified="2024-04-15T15:06:40.935Z" agent="Mozilla/5.0 (Windows NT 10.0; Win64; x64) AppleWebKit/537.36 (KHTML, like Gecko) draw.io/24.2.5 Chrome/120.0.6099.109 Electron/28.1.0 Safari/537.36" etag="Ekga7XrQYPqe6rfdWR6A" version="24.2.5" type="device" pages="3">
  <diagram name="eiger-port-client" id="WCi0ZohuMFChYZL453Us">
    <mxGraphModel dx="392" dy="548" grid="1" gridSize="10" guides="1" tooltips="1" connect="1" arrows="1" fold="1" page="1" pageScale="1" pageWidth="850" pageHeight="1100" math="0" shadow="0">
      <root>
        <mxCell id="0" />
        <mxCell id="1" parent="0" />
        <mxCell id="TE_x9kz6LQex2jqoHtGD-1" style="edgeStyle=orthogonalEdgeStyle;rounded=0;orthogonalLoop=1;jettySize=auto;html=1;exitX=1;exitY=0.5;exitDx=0;exitDy=0;entryX=0.5;entryY=0;entryDx=0;entryDy=0;curved=1;" edge="1" parent="1" source="TE_x9kz6LQex2jqoHtGD-4" target="TE_x9kz6LQex2jqoHtGD-11">
          <mxGeometry relative="1" as="geometry" />
        </mxCell>
        <mxCell id="TE_x9kz6LQex2jqoHtGD-2" value="read_invoke" style="edgeLabel;html=1;align=center;verticalAlign=middle;resizable=0;points=[];fontSize=11;fontColor=#CC0000;" vertex="1" connectable="0" parent="TE_x9kz6LQex2jqoHtGD-1">
          <mxGeometry x="0.3182" y="-8" relative="1" as="geometry">
            <mxPoint as="offset" />
          </mxGeometry>
        </mxCell>
        <mxCell id="TE_x9kz6LQex2jqoHtGD-3" value="&lt;font color=&quot;#cc0000&quot;&gt;write_invoke&lt;/font&gt;" style="edgeStyle=orthogonalEdgeStyle;curved=1;rounded=0;orthogonalLoop=1;jettySize=auto;html=1;exitX=0.5;exitY=1;exitDx=0;exitDy=0;entryX=0.5;entryY=0;entryDx=0;entryDy=0;" edge="1" parent="1" source="TE_x9kz6LQex2jqoHtGD-4" target="TE_x9kz6LQex2jqoHtGD-6">
          <mxGeometry relative="1" as="geometry" />
        </mxCell>
        <mxCell id="TE_x9kz6LQex2jqoHtGD-4" value="Idle" style="ellipse;whiteSpace=wrap;html=1;" vertex="1" parent="1">
          <mxGeometry x="143" y="80" width="70" height="40" as="geometry" />
        </mxCell>
        <mxCell id="TE_x9kz6LQex2jqoHtGD-5" value="&lt;span style=&quot;color: rgb(204, 0, 0); font-family: Helvetica; font-size: 11px; font-style: normal; font-variant-ligatures: normal; font-variant-caps: normal; font-weight: 400; letter-spacing: normal; orphans: 2; text-align: center; text-indent: 0px; text-transform: none; widows: 2; word-spacing: 0px; -webkit-text-stroke-width: 0px; background-color: rgb(248, 249, 250); text-decoration-thickness: initial; text-decoration-style: initial; text-decoration-color: initial; float: none; display: inline !important;&quot;&gt;write_commit&lt;/span&gt;" style="edgeStyle=orthogonalEdgeStyle;curved=1;rounded=0;orthogonalLoop=1;jettySize=auto;html=1;exitX=0.5;exitY=1;exitDx=0;exitDy=0;entryX=0.5;entryY=0;entryDx=0;entryDy=0;fontSize=11;fontColor=#CC0000;" edge="1" parent="1" source="TE_x9kz6LQex2jqoHtGD-6" target="TE_x9kz6LQex2jqoHtGD-8">
          <mxGeometry relative="1" as="geometry" />
        </mxCell>
        <mxCell id="TE_x9kz6LQex2jqoHtGD-6" value="&lt;font color=&quot;#004c99&quot;&gt;WtxnPrep&lt;/font&gt;" style="ellipse;whiteSpace=wrap;html=1;strokeColor=#004C99;" vertex="1" parent="1">
          <mxGeometry x="143" y="170" width="70" height="40" as="geometry" />
        </mxCell>
        <mxCell id="TE_x9kz6LQex2jqoHtGD-7" value="&lt;b&gt;All Servers&lt;br&gt;Committed&lt;br&gt;&lt;/b&gt;" style="edgeStyle=orthogonalEdgeStyle;curved=1;rounded=0;orthogonalLoop=1;jettySize=auto;html=1;exitX=0;exitY=0.5;exitDx=0;exitDy=0;entryX=0;entryY=0.5;entryDx=0;entryDy=0;" edge="1" parent="1" source="TE_x9kz6LQex2jqoHtGD-8" target="TE_x9kz6LQex2jqoHtGD-4">
          <mxGeometry relative="1" as="geometry">
            <Array as="points">
              <mxPoint x="79" y="280" />
              <mxPoint x="79" y="100" />
            </Array>
          </mxGeometry>
        </mxCell>
        <mxCell id="TE_x9kz6LQex2jqoHtGD-8" value="&lt;font color=&quot;#006600&quot;&gt;WtxnCommit&lt;/font&gt;" style="ellipse;whiteSpace=wrap;html=1;strokeColor=#00CC00;" vertex="1" parent="1">
          <mxGeometry x="143" y="260" width="70" height="40" as="geometry" />
        </mxCell>
        <mxCell id="TE_x9kz6LQex2jqoHtGD-9" value="&lt;b&gt;Client - txn_state&lt;/b&gt;" style="text;html=1;align=center;verticalAlign=middle;resizable=0;points=[];autosize=1;strokeColor=none;fontSize=13;" vertex="1" parent="1">
          <mxGeometry x="114" y="25" width="130" height="30" as="geometry" />
        </mxCell>
        <mxCell id="TE_x9kz6LQex2jqoHtGD-10" value="&lt;font color=&quot;#cc0000&quot;&gt;read_done&lt;/font&gt;" style="edgeStyle=orthogonalEdgeStyle;curved=1;rounded=0;orthogonalLoop=1;jettySize=auto;html=1;exitX=1;exitY=0;exitDx=0;exitDy=0;entryX=1;entryY=0.5;entryDx=0;entryDy=0;" edge="1" parent="1" source="TE_x9kz6LQex2jqoHtGD-11" target="TE_x9kz6LQex2jqoHtGD-4">
          <mxGeometry x="-0.6819" y="-10" relative="1" as="geometry">
            <Array as="points">
              <mxPoint x="300" y="100" />
            </Array>
            <mxPoint as="offset" />
          </mxGeometry>
        </mxCell>
        <mxCell id="TE_x9kz6LQex2jqoHtGD-11" value="&lt;font color=&quot;#004c99&quot;&gt;RtxnInProg&lt;/font&gt;" style="ellipse;whiteSpace=wrap;html=1;strokeColor=#004C99;" vertex="1" parent="1">
          <mxGeometry x="240" y="170" width="70" height="40" as="geometry" />
        </mxCell>
        <mxCell id="TE_x9kz6LQex2jqoHtGD-12" value="&lt;u style=&quot;color: rgb(0, 0, 0);&quot;&gt;&lt;font color=&quot;#006600&quot;&gt;&lt;b&gt;All Servers&lt;br&gt;Prepared&lt;/b&gt;&lt;/font&gt;&lt;/u&gt;" style="text;html=1;align=center;verticalAlign=middle;resizable=0;points=[];autosize=1;strokeColor=none;fillColor=none;fontSize=11;fontColor=#CC0000;" vertex="1" parent="1">
          <mxGeometry x="200" y="230" width="80" height="40" as="geometry" />
        </mxCell>
        <mxCell id="TE_x9kz6LQex2jqoHtGD-13" value="write_done" style="text;html=1;align=center;verticalAlign=middle;resizable=0;points=[];autosize=1;strokeColor=none;fillColor=none;fontSize=11;fontColor=#CC0000;" vertex="1" parent="1">
          <mxGeometry x="50" y="260" width="80" height="30" as="geometry" />
        </mxCell>
        <mxCell id="TE_x9kz6LQex2jqoHtGD-14" value="read" style="edgeStyle=orthogonalEdgeStyle;curved=1;rounded=0;orthogonalLoop=1;jettySize=auto;html=1;exitX=1;exitY=1;exitDx=0;exitDy=0;entryX=1;entryY=0.5;entryDx=0;entryDy=0;fontSize=11;fontColor=#CC0000;" edge="1" parent="1" source="TE_x9kz6LQex2jqoHtGD-11" target="TE_x9kz6LQex2jqoHtGD-11">
          <mxGeometry relative="1" as="geometry">
            <Array as="points">
              <mxPoint x="300" y="210" />
              <mxPoint x="330" y="210" />
              <mxPoint x="330" y="190" />
            </Array>
          </mxGeometry>
        </mxCell>
      </root>
    </mxGraphModel>
  </diagram>
  <diagram id="1Ex61JMMNWkT0o1yI-IY" name="eiger-port-server">
    <mxGraphModel dx="392" dy="548" grid="1" gridSize="10" guides="1" tooltips="1" connect="1" arrows="1" fold="1" page="1" pageScale="1" pageWidth="850" pageHeight="1100" math="0" shadow="0">
      <root>
        <mxCell id="0" />
        <mxCell id="1" parent="0" />
        <mxCell id="532kQy40hazS_9ITFr_W-1" value="&lt;font color=&quot;#cc0000&quot;&gt;prepare_write&lt;/font&gt;" style="edgeStyle=orthogonalEdgeStyle;curved=1;rounded=0;orthogonalLoop=1;jettySize=auto;html=1;exitX=0.5;exitY=1;exitDx=0;exitDy=0;entryX=0.5;entryY=0;entryDx=0;entryDy=0;" edge="1" parent="1" source="532kQy40hazS_9ITFr_W-2" target="532kQy40hazS_9ITFr_W-4">
          <mxGeometry relative="1" as="geometry" />
        </mxCell>
        <mxCell id="532kQy40hazS_9ITFr_W-2" value="Ready" style="ellipse;whiteSpace=wrap;html=1;" vertex="1" parent="1">
          <mxGeometry x="143" y="80" width="70" height="40" as="geometry" />
        </mxCell>
        <mxCell id="532kQy40hazS_9ITFr_W-3" value="&lt;span style=&quot;color: rgb(204, 0, 0); font-family: Helvetica; font-size: 11px; font-style: normal; font-variant-ligatures: normal; font-variant-caps: normal; font-weight: 400; letter-spacing: normal; orphans: 2; text-align: center; text-indent: 0px; text-transform: none; widows: 2; word-spacing: 0px; -webkit-text-stroke-width: 0px; background-color: rgb(248, 249, 250); text-decoration-thickness: initial; text-decoration-style: initial; text-decoration-color: initial; float: none; display: inline !important;&quot;&gt;commit_write&lt;/span&gt;" style="edgeStyle=orthogonalEdgeStyle;curved=1;rounded=0;orthogonalLoop=1;jettySize=auto;html=1;exitX=0.5;exitY=1;exitDx=0;exitDy=0;entryX=0.5;entryY=0;entryDx=0;entryDy=0;fontSize=11;fontColor=#CC0000;" edge="1" parent="1" source="532kQy40hazS_9ITFr_W-4" target="532kQy40hazS_9ITFr_W-5">
          <mxGeometry relative="1" as="geometry" />
        </mxCell>
        <mxCell id="532kQy40hazS_9ITFr_W-4" value="&lt;font color=&quot;#004c99&quot;&gt;Prep&lt;/font&gt;" style="ellipse;whiteSpace=wrap;html=1;strokeColor=#004C99;" vertex="1" parent="1">
          <mxGeometry x="143" y="170" width="70" height="40" as="geometry" />
        </mxCell>
        <mxCell id="532kQy40hazS_9ITFr_W-5" value="&lt;font color=&quot;#006600&quot;&gt;Commit&lt;/font&gt;" style="ellipse;whiteSpace=wrap;html=1;strokeColor=#00CC00;" vertex="1" parent="1">
          <mxGeometry x="143" y="260" width="70" height="40" as="geometry" />
        </mxCell>
        <mxCell id="532kQy40hazS_9ITFr_W-6" value="&lt;b&gt;Server - wtxn_state&lt;br&gt;(given a key and transaction id)&lt;br&gt;&lt;/b&gt;" style="text;html=1;align=center;verticalAlign=middle;resizable=0;points=[];autosize=1;strokeColor=none;fontSize=13;" vertex="1" parent="1">
          <mxGeometry x="69" y="20" width="220" height="40" as="geometry" />
        </mxCell>
        <mxCell id="532kQy40hazS_9ITFr_W-7" value="&lt;b&gt;Server - registering reads on the server&lt;br&gt;(given a key and transaction id)&lt;br&gt;&lt;/b&gt;" style="text;html=1;align=center;verticalAlign=middle;resizable=0;points=[];autosize=1;strokeColor=none;fontSize=13;" vertex="1" parent="1">
          <mxGeometry x="265" y="75" width="270" height="40" as="geometry" />
        </mxCell>
        <mxCell id="532kQy40hazS_9ITFr_W-8" value="&lt;font color=&quot;#cc0000&quot;&gt;register_read&lt;/font&gt;" style="edgeStyle=orthogonalEdgeStyle;curved=1;rounded=0;orthogonalLoop=1;jettySize=auto;html=1;exitX=0.5;exitY=1;exitDx=0;exitDy=0;entryX=0.5;entryY=0;entryDx=0;entryDy=0;" edge="1" parent="1" source="532kQy40hazS_9ITFr_W-9" target="532kQy40hazS_9ITFr_W-10">
          <mxGeometry relative="1" as="geometry">
            <mxPoint x="400" y="210" as="targetPoint" />
          </mxGeometry>
        </mxCell>
        <mxCell id="532kQy40hazS_9ITFr_W-9" value="Ready" style="ellipse;whiteSpace=wrap;html=1;" vertex="1" parent="1">
          <mxGeometry x="365" y="120" width="70" height="40" as="geometry" />
        </mxCell>
        <mxCell id="532kQy40hazS_9ITFr_W-10" value="&lt;font color=&quot;#006600&quot;&gt;Registered&lt;/font&gt;" style="ellipse;whiteSpace=wrap;html=1;strokeColor=#00CC00;" vertex="1" parent="1">
          <mxGeometry x="365" y="220" width="70" height="40" as="geometry" />
        </mxCell>
      </root>
    </mxGraphModel>
  </diagram>
  <diagram id="sjw4DNEEKMaHqX2pJx1l" name="eiger-port">
    <mxGraphModel dx="392" dy="548" grid="1" gridSize="10" guides="1" tooltips="1" connect="1" arrows="1" fold="1" page="1" pageScale="1" pageWidth="850" pageHeight="1100" math="0" shadow="0">
      <root>
        <mxCell id="0" />
        <mxCell id="1" parent="0" />
        <mxCell id="aMr33x4UCfpy0xVM2RNw-1" style="edgeStyle=orthogonalEdgeStyle;rounded=0;orthogonalLoop=1;jettySize=auto;html=1;exitX=1;exitY=0.5;exitDx=0;exitDy=0;entryX=0.5;entryY=0;entryDx=0;entryDy=0;curved=1;" edge="1" parent="1" source="aMr33x4UCfpy0xVM2RNw-4" target="aMr33x4UCfpy0xVM2RNw-11">
          <mxGeometry relative="1" as="geometry" />
        </mxCell>
        <mxCell id="aMr33x4UCfpy0xVM2RNw-2" value="read_invoke" style="edgeLabel;html=1;align=center;verticalAlign=middle;resizable=0;points=[];fontSize=11;fontColor=#CC0000;" vertex="1" connectable="0" parent="aMr33x4UCfpy0xVM2RNw-1">
          <mxGeometry x="0.3182" y="-8" relative="1" as="geometry">
            <mxPoint as="offset" />
          </mxGeometry>
        </mxCell>
        <mxCell id="aMr33x4UCfpy0xVM2RNw-3" value="&lt;font color=&quot;#cc0000&quot;&gt;write_invoke&lt;/font&gt;" style="edgeStyle=orthogonalEdgeStyle;curved=1;rounded=0;orthogonalLoop=1;jettySize=auto;html=1;exitX=0.5;exitY=1;exitDx=0;exitDy=0;entryX=0.5;entryY=0;entryDx=0;entryDy=0;" edge="1" parent="1" source="aMr33x4UCfpy0xVM2RNw-4" target="aMr33x4UCfpy0xVM2RNw-6">
          <mxGeometry relative="1" as="geometry" />
        </mxCell>
        <mxCell id="aMr33x4UCfpy0xVM2RNw-4" value="Idle" style="ellipse;whiteSpace=wrap;html=1;" vertex="1" parent="1">
          <mxGeometry x="143" y="80" width="70" height="40" as="geometry" />
        </mxCell>
        <mxCell id="aMr33x4UCfpy0xVM2RNw-5" value="&lt;span style=&quot;color: rgb(204, 0, 0); font-family: Helvetica; font-size: 11px; font-style: normal; font-variant-ligatures: normal; font-variant-caps: normal; font-weight: 400; letter-spacing: normal; orphans: 2; text-align: center; text-indent: 0px; text-transform: none; widows: 2; word-spacing: 0px; -webkit-text-stroke-width: 0px; background-color: rgb(248, 249, 250); text-decoration-thickness: initial; text-decoration-style: initial; text-decoration-color: initial; float: none; display: inline !important;&quot;&gt;write_commit&lt;/span&gt;" style="edgeStyle=orthogonalEdgeStyle;curved=1;rounded=0;orthogonalLoop=1;jettySize=auto;html=1;exitX=0.5;exitY=1;exitDx=0;exitDy=0;entryX=0.5;entryY=0;entryDx=0;entryDy=0;fontSize=11;fontColor=#CC0000;" edge="1" parent="1" source="aMr33x4UCfpy0xVM2RNw-6" target="aMr33x4UCfpy0xVM2RNw-8">
          <mxGeometry relative="1" as="geometry" />
        </mxCell>
        <mxCell id="aMr33x4UCfpy0xVM2RNw-6" value="&lt;font color=&quot;#004c99&quot;&gt;WtxnPrep&lt;/font&gt;" style="ellipse;whiteSpace=wrap;html=1;strokeColor=#004C99;" vertex="1" parent="1">
          <mxGeometry x="143" y="170" width="70" height="40" as="geometry" />
        </mxCell>
        <mxCell id="aMr33x4UCfpy0xVM2RNw-7" value="&lt;b&gt;All Servers&lt;br&gt;Committed&lt;br&gt;&lt;/b&gt;" style="edgeStyle=orthogonalEdgeStyle;curved=1;rounded=0;orthogonalLoop=1;jettySize=auto;html=1;exitX=0;exitY=0.5;exitDx=0;exitDy=0;entryX=0;entryY=0.5;entryDx=0;entryDy=0;" edge="1" parent="1" source="aMr33x4UCfpy0xVM2RNw-8" target="aMr33x4UCfpy0xVM2RNw-4">
          <mxGeometry relative="1" as="geometry">
            <Array as="points">
              <mxPoint x="79" y="280" />
              <mxPoint x="79" y="100" />
            </Array>
          </mxGeometry>
        </mxCell>
        <mxCell id="aMr33x4UCfpy0xVM2RNw-8" value="&lt;font color=&quot;#006600&quot;&gt;WtxnCommit&lt;/font&gt;" style="ellipse;whiteSpace=wrap;html=1;strokeColor=#00CC00;" vertex="1" parent="1">
          <mxGeometry x="143" y="260" width="70" height="40" as="geometry" />
        </mxCell>
        <mxCell id="aMr33x4UCfpy0xVM2RNw-9" value="&lt;b&gt;Client - txn_state&lt;/b&gt;" style="text;html=1;align=center;verticalAlign=middle;resizable=0;points=[];autosize=1;strokeColor=none;fontSize=13;" vertex="1" parent="1">
          <mxGeometry x="114" y="25" width="130" height="30" as="geometry" />
        </mxCell>
        <mxCell id="aMr33x4UCfpy0xVM2RNw-10" value="&lt;font color=&quot;#cc0000&quot;&gt;read_done&lt;/font&gt;" style="edgeStyle=orthogonalEdgeStyle;curved=1;rounded=0;orthogonalLoop=1;jettySize=auto;html=1;exitX=1;exitY=0;exitDx=0;exitDy=0;entryX=1;entryY=0.5;entryDx=0;entryDy=0;" edge="1" parent="1" source="aMr33x4UCfpy0xVM2RNw-11" target="aMr33x4UCfpy0xVM2RNw-4">
          <mxGeometry x="-0.6819" y="-10" relative="1" as="geometry">
            <Array as="points">
              <mxPoint x="300" y="100" />
            </Array>
            <mxPoint as="offset" />
          </mxGeometry>
        </mxCell>
        <mxCell id="aMr33x4UCfpy0xVM2RNw-11" value="&lt;font color=&quot;#004c99&quot;&gt;RtxnInProg&lt;/font&gt;" style="ellipse;whiteSpace=wrap;html=1;strokeColor=#004C99;" vertex="1" parent="1">
          <mxGeometry x="240" y="170" width="70" height="40" as="geometry" />
        </mxCell>
        <mxCell id="aMr33x4UCfpy0xVM2RNw-12" value="&lt;u style=&quot;color: rgb(0, 0, 0);&quot;&gt;&lt;font color=&quot;#006600&quot;&gt;&lt;b&gt;All Servers&lt;br&gt;Prepared&lt;/b&gt;&lt;/font&gt;&lt;/u&gt;" style="text;html=1;align=center;verticalAlign=middle;resizable=0;points=[];autosize=1;strokeColor=none;fillColor=none;fontSize=11;fontColor=#CC0000;" vertex="1" parent="1">
          <mxGeometry x="200" y="230" width="80" height="40" as="geometry" />
        </mxCell>
        <mxCell id="aMr33x4UCfpy0xVM2RNw-13" value="write_done" style="text;html=1;align=center;verticalAlign=middle;resizable=0;points=[];autosize=1;strokeColor=none;fillColor=none;fontSize=11;fontColor=#CC0000;" vertex="1" parent="1">
          <mxGeometry x="50" y="260" width="80" height="30" as="geometry" />
        </mxCell>
        <mxCell id="aMr33x4UCfpy0xVM2RNw-14" value="read" style="edgeStyle=orthogonalEdgeStyle;curved=1;rounded=0;orthogonalLoop=1;jettySize=auto;html=1;exitX=1;exitY=1;exitDx=0;exitDy=0;entryX=1;entryY=0.5;entryDx=0;entryDy=0;fontSize=11;fontColor=#CC0000;" edge="1" parent="1" source="aMr33x4UCfpy0xVM2RNw-11" target="aMr33x4UCfpy0xVM2RNw-11">
          <mxGeometry relative="1" as="geometry">
            <Array as="points">
              <mxPoint x="300" y="210" />
              <mxPoint x="330" y="210" />
              <mxPoint x="330" y="190" />
            </Array>
          </mxGeometry>
        </mxCell>
        <mxCell id="aMr33x4UCfpy0xVM2RNw-15" value="&lt;font color=&quot;#cc0000&quot;&gt;prepare_write&lt;/font&gt;" style="edgeStyle=orthogonalEdgeStyle;curved=1;rounded=0;orthogonalLoop=1;jettySize=auto;html=1;exitX=0.5;exitY=1;exitDx=0;exitDy=0;entryX=0.5;entryY=0;entryDx=0;entryDy=0;" edge="1" parent="1" source="aMr33x4UCfpy0xVM2RNw-16" target="aMr33x4UCfpy0xVM2RNw-18">
          <mxGeometry relative="1" as="geometry" />
        </mxCell>
        <mxCell id="aMr33x4UCfpy0xVM2RNw-16" value="Ready" style="ellipse;whiteSpace=wrap;html=1;" vertex="1" parent="1">
          <mxGeometry x="364" y="85" width="70" height="40" as="geometry" />
        </mxCell>
        <mxCell id="aMr33x4UCfpy0xVM2RNw-17" value="&lt;span style=&quot;color: rgb(204, 0, 0); font-family: Helvetica; font-size: 11px; font-style: normal; font-variant-ligatures: normal; font-variant-caps: normal; font-weight: 400; letter-spacing: normal; orphans: 2; text-align: center; text-indent: 0px; text-transform: none; widows: 2; word-spacing: 0px; -webkit-text-stroke-width: 0px; background-color: rgb(248, 249, 250); text-decoration-thickness: initial; text-decoration-style: initial; text-decoration-color: initial; float: none; display: inline !important;&quot;&gt;commit_write&lt;/span&gt;" style="edgeStyle=orthogonalEdgeStyle;curved=1;rounded=0;orthogonalLoop=1;jettySize=auto;html=1;exitX=0.5;exitY=1;exitDx=0;exitDy=0;entryX=0.5;entryY=0;entryDx=0;entryDy=0;fontSize=11;fontColor=#CC0000;" edge="1" parent="1" source="aMr33x4UCfpy0xVM2RNw-18" target="aMr33x4UCfpy0xVM2RNw-19">
          <mxGeometry relative="1" as="geometry" />
        </mxCell>
        <mxCell id="aMr33x4UCfpy0xVM2RNw-18" value="&lt;font color=&quot;#004c99&quot;&gt;Prep&lt;/font&gt;" style="ellipse;whiteSpace=wrap;html=1;strokeColor=#004C99;" vertex="1" parent="1">
          <mxGeometry x="364" y="175" width="70" height="40" as="geometry" />
        </mxCell>
        <mxCell id="aMr33x4UCfpy0xVM2RNw-19" value="&lt;font color=&quot;#006600&quot;&gt;Commit&lt;/font&gt;" style="ellipse;whiteSpace=wrap;html=1;strokeColor=#00CC00;" vertex="1" parent="1">
          <mxGeometry x="364" y="265" width="70" height="40" as="geometry" />
        </mxCell>
        <mxCell id="aMr33x4UCfpy0xVM2RNw-20" value="&lt;b&gt;Server - wtxn_state&lt;br&gt;(given a key and transaction id)&lt;br&gt;&lt;/b&gt;" style="text;html=1;align=center;verticalAlign=middle;resizable=0;points=[];autosize=1;strokeColor=none;fontSize=13;" vertex="1" parent="1">
          <mxGeometry x="290" y="25" width="220" height="40" as="geometry" />
        </mxCell>
        <mxCell id="aMr33x4UCfpy0xVM2RNw-21" value="&lt;b&gt;Server - registering reads on the server&lt;br&gt;(given a key and transaction id)&lt;br&gt;&lt;/b&gt;" style="text;html=1;align=center;verticalAlign=middle;resizable=0;points=[];autosize=1;strokeColor=none;fontSize=13;" vertex="1" parent="1">
          <mxGeometry x="460" y="80" width="270" height="40" as="geometry" />
        </mxCell>
        <mxCell id="aMr33x4UCfpy0xVM2RNw-22" value="&lt;font color=&quot;#cc0000&quot;&gt;register_read&lt;/font&gt;" style="edgeStyle=orthogonalEdgeStyle;curved=1;rounded=0;orthogonalLoop=1;jettySize=auto;html=1;exitX=0.5;exitY=1;exitDx=0;exitDy=0;entryX=0.5;entryY=0;entryDx=0;entryDy=0;" edge="1" parent="1" source="aMr33x4UCfpy0xVM2RNw-23" target="aMr33x4UCfpy0xVM2RNw-24">
          <mxGeometry relative="1" as="geometry">
            <mxPoint x="595" y="215" as="targetPoint" />
          </mxGeometry>
        </mxCell>
        <mxCell id="aMr33x4UCfpy0xVM2RNw-23" value="Ready" style="ellipse;whiteSpace=wrap;html=1;" vertex="1" parent="1">
          <mxGeometry x="560" y="125" width="70" height="40" as="geometry" />
        </mxCell>
        <mxCell id="aMr33x4UCfpy0xVM2RNw-24" value="&lt;font color=&quot;#006600&quot;&gt;Registered&lt;/font&gt;" style="ellipse;whiteSpace=wrap;html=1;strokeColor=#00CC00;" vertex="1" parent="1">
          <mxGeometry x="560" y="225" width="70" height="40" as="geometry" />
        </mxCell>
      </root>
    </mxGraphModel>
  </diagram>
</mxfile>
